<svg xmlns="http://www.w3.org/2000/svg" xmlns:svgjs="http://svgjs.dev/svgjs" xmlns:xlink="http://www.w3.org/1999/xlink" width="100%" height="100%" version="1.1" viewBox="0 0 1000 600"><rect width="1000" height="600" x="0" y="0" fill="#006400"/><g><rect width="333.333" height="333.333" x="238.525" y="260.747" fill="#fff" transform="matrix(0.5240538052456046,0,0,0.5240538052456046,0,76.01205674145216)"/><path fill="#006400" d="M464.68731206295604 359.7553135146435L464.68731206295604 460.77571789128035Q464.68731206295604 470.1578037074046 462.02291306985734 477.81086464502863Q459.38685874689793 485.4639255826526 452.75420593429044 490.8777575792681Q446.121553121683 496.2915895758836 434.4718936944109 499.35281395093324Q422.8505789372781 502.4140383259828 404.88005806893136 502.4140383259828L404.88005806893136 502.4140383259828Q387.1362945616994 502.4140383259828 375.6000138149847 499.35281395093324Q364.06373306827004 496.2915895758836 357.43108025566255 490.8777575792681Q350.79842744305506 485.4639255826526 348.24740713051375 477.81086464502863Q345.6963868179724 470.1578037074046 345.6963868179724 460.77571789128035L345.6963868179724 460.77571789128035L345.6963868179724 427.7258325088004Q345.6963868179724 423.84261269970966 347.4254116964726 422.1135878212094Q349.1827812451122 420.3845629427092 353.03765638406355 420.3845629427092L353.03765638406355 420.3845629427092L382.62949200954307 420.3845629427092Q386.51271181863376 420.3845629427092 388.241736697134 422.1135878212094Q389.9991062457736 423.84261269970966 389.9991062457736 427.7258325088004L389.9991062457736 427.7258325088004L389.9991062457736 452.6124528911481Q389.9991062457736 456.69408539121423 392.5501265583149 459.443518394731Q395.10114687085627 462.2212960683871 404.4832326869805 462.2212960683871L404.4832326869805 462.2212960683871Q413.2417357600391 462.2212960683871 415.594343381605 459.443518394731Q417.9469510031709 456.69408539121423 417.9469510031709 452.6124528911481L417.9469510031709 452.6124528911481L417.9469510031709 359.7553135146435Q417.9469510031709 355.87209370555274 419.67597588167115 354.1430688270525Q421.4050007601714 352.41404394855226 425.2882205692621 352.41404394855226L425.2882205692621 352.41404394855226L457.34604249686487 352.41404394855226Q461.20091763581627 352.41404394855226 462.9582871844558 354.1430688270525Q464.68731206295604 355.87209370555274 464.68731206295604 359.7553135146435L464.68731206295604 359.7553135146435Z" transform="matrix(0.5240538052456046,0,0,0.5240538052456046,0,76.01205674145216)"/><path fill="#fff" d="M774.1827763879072 359.7553135146435L774.1827763879072 460.77571789128035Q774.1827763879072 470.1578037074046 771.5183773948085 477.81086464502863Q768.8823230718491 485.4639255826526 762.2496702592416 490.8777575792681Q755.6170174466341 496.2915895758836 743.9673580193621 499.35281395093324Q732.3460432622293 502.4140383259828 714.3755223938825 502.4140383259828L714.3755223938825 502.4140383259828Q696.6317588866506 502.4140383259828 685.0954781399358 499.35281395093324Q673.5591973932212 496.2915895758836 666.9265445806136 490.8777575792681Q660.2938917680062 485.4639255826526 657.7428714554649 477.81086464502863Q655.1918511429235 470.1578037074046 655.1918511429235 460.77571789128035L655.1918511429235 460.77571789128035L655.1918511429235 427.7258325088004Q655.1918511429235 423.84261269970966 656.9208760214237 422.1135878212094Q658.6782455700634 420.3845629427092 662.5331207090147 420.3845629427092L662.5331207090147 420.3845629427092L692.1249563344942 420.3845629427092Q696.0081761435849 420.3845629427092 697.7372010220852 422.1135878212094Q699.4945705707247 423.84261269970966 699.4945705707247 427.7258325088004L699.4945705707247 427.7258325088004L699.4945705707247 452.6124528911481Q699.4945705707247 456.69408539121423 702.0455908832661 459.443518394731Q704.5966111958073 462.2212960683871 713.9786970119317 462.2212960683871L713.9786970119317 462.2212960683871Q722.7372000849903 462.2212960683871 725.0898077065561 459.443518394731Q727.442415328122 456.69408539121423 727.442415328122 452.6124528911481L727.442415328122 452.6124528911481L727.442415328122 359.7553135146435Q727.442415328122 355.87209370555274 729.1714402066223 354.1430688270525Q730.9004650851225 352.41404394855226 734.7836848942133 352.41404394855226L734.7836848942133 352.41404394855226L766.841506821816 352.41404394855226Q770.6963819607673 352.41404394855226 772.453751509407 354.1430688270525Q774.1827763879072 355.87209370555274 774.1827763879072 359.7553135146435L774.1827763879072 359.7553135146435ZM840.3108918230065 499.35281395093324L840.3108918230065 499.35281395093324L808.6782399474939 499.35281395093324Q804.7950201384032 499.35281395093324 803.0659952599029 497.623789072433Q801.3086257112634 495.89476419393276 801.3086257112634 492.01154438484207L801.3086257112634 492.01154438484207L801.3086257112634 359.7553135146435Q801.3086257112634 355.87209370555274 803.0659952599029 354.1430688270525Q804.7950201384032 352.41404394855226 808.6782399474939 352.41404394855226L808.6782399474939 352.41404394855226L840.3108918230065 352.41404394855226Q844.1657669619578 352.41404394855226 845.9231365105974 354.1430688270525Q847.6521613890976 355.87209370555274 847.6521613890976 359.7553135146435L847.6521613890976 359.7553135146435L847.6521613890976 404.0580329424447L881.7224548965942 404.0580329424447L881.7224548965942 359.7553135146435Q881.7224548965942 355.87209370555274 883.4514797750944 354.1430688270525Q885.208849323734 352.41404394855226 889.0637244626854 352.41404394855226L889.0637244626854 352.41404394855226L920.6963763381979 352.41404394855226Q924.5795961472885 352.41404394855226 926.3086210257889 354.1430688270525Q928.0659905744284 355.87209370555274 928.0659905744284 359.7553135146435L928.0659905744284 359.7553135146435L928.0659905744284 492.01154438484207Q928.0659905744284 495.89476419393276 926.3086210257889 497.623789072433Q924.5795961472885 499.35281395093324 920.6963763381979 499.35281395093324L920.6963763381979 499.35281395093324L889.0637244626854 499.35281395093324Q885.208849323734 499.35281395093324 883.4514797750944 497.623789072433Q881.7224548965942 495.89476419393276 881.7224548965942 492.01154438484207L881.7224548965942 492.01154438484207L881.7224548965942 446.6884168320243L847.6521613890976 446.6884168320243L847.6521613890976 492.01154438484207Q847.6521613890976 495.89476419393276 845.9231365105974 497.623789072433Q844.1657669619578 499.35281395093324 840.3108918230065 499.35281395093324ZM1030.7020411490082 499.35281395093324L1030.7020411490082 499.35281395093324L997.6521557665282 499.35281395093324Q993.7689359574375 499.35281395093324 992.0399110789373 497.623789072433Q990.310886200437 495.89476419393276 990.310886200437 492.01154438484207L990.310886200437 492.01154438484207L990.310886200437 465.87775851636303L959.0750597068753 424.04102539068515Q954.3698444637436 417.7201639496105 952.8392322762187 413.01494870647866Q951.3086200886939 408.33807813348625 951.3086200886939 398.95599231736196L951.3086200886939 398.95599231736196L951.3086200886939 359.7553135146435Q951.3086200886939 355.87209370555274 953.0659896373335 354.1430688270525Q954.7950145158337 352.41404394855226 958.6782343249245 352.41404394855226L958.6782343249245 352.41404394855226L990.0841288393223 352.41404394855226Q993.9673486484129 352.41404394855226 995.6963735269131 354.1430688270525Q997.4537430755528 355.87209370555274 997.4537430755528 359.7553135146435L997.4537430755528 359.7553135146435L997.4537430755528 393.2303689492137Q997.4537430755528 395.2711851992467 997.6521557665282 397.51041414025525Q997.8505684575036 399.74964308126374 999.267801964471 401.7904593312968L999.267801964471 401.7904593312968L1008.6782324507346 416.50134313361855Q1009.6986405757513 418.3437466926762 1010.8040827111857 419.1373974565779Q1011.9378695167596 419.959392890619 1013.5535157147025 419.959392890619L1013.5535157147025 419.959392890619L1015.5943319647356 419.959392890619Q1017.2383228328177 419.959392890619 1018.3721096383917 419.1373974565779Q1019.4775517738263 418.3437466926762 1020.4979598988429 416.50134313361855L1020.4979598988429 416.50134313361855L1029.8800457149669 401.7904593312968Q1031.325623892074 399.74964308126374 1031.524036583049 397.51041414025525Q1031.7224492740247 395.2711851992467 1031.7224492740247 393.2303689492137L1031.7224492740247 393.2303689492137L1031.7224492740247 359.7553135146435Q1031.7224492740247 355.87209370555274 1033.451474152525 354.1430688270525Q1035.2088437011644 352.41404394855226 1039.063718840116 352.41404394855226L1039.063718840116 352.41404394855226L1069.4775498996364 352.41404394855226Q1073.3607697087273 352.41404394855226 1075.0897945872275 354.1430688270525Q1076.8188194657278 355.87209370555274 1076.8188194657278 359.7553135146435L1076.8188194657278 359.7553135146435L1076.8188194657278 398.95599231736196Q1076.8188194657278 408.33807813348625 1075.2031732677847 413.01494870647866Q1073.5591823997026 417.7201639496105 1069.0807245176857 424.04102539068515L1069.0807245176857 424.04102539068515L1038.0433107150993 466.07617120733846L1038.0433107150993 492.01154438484207Q1038.0433107150993 495.89476419393276 1036.314285836599 497.623789072433Q1034.5852609580988 499.35281395093324 1030.7020411490082 499.35281395093324ZM1148.2473882168852 395.2711851992467L1148.2473882168852 395.2711851992467L1138.6668897097852 426.28025433169364L1170.6963669672487 426.28025433169364L1161.1158684601492 395.2711851992467Q1160.293873026108 393.42878164018913 1159.386843581649 392.606786206148Q1158.4514694670506 391.8131354422463 1157.2326486510583 391.8131354422463L1157.2326486510583 391.8131354422463L1152.1306080259758 391.8131354422463Q1150.9117872099837 391.8131354422463 1150.0047577655246 392.606786206148Q1149.0693836509263 393.42878164018913 1148.2473882168852 395.2711851992467ZM1136.6260734597522 463.4401168843791L1136.6260734597522 492.01154438484207Q1136.6260734597522 495.89476419393276 1134.897048581252 497.623789072433Q1133.1680237027517 499.35281395093324 1129.2848038936613 499.35281395093324L1129.2848038936613 499.35281395093324L1099.2677982160913 499.35281395093324Q1095.41292307714 499.35281395093324 1093.6555535285006 497.623789072433Q1091.9265286500004 495.89476419393276 1091.9265286500004 492.01154438484207L1091.9265286500004 492.01154438484207L1091.9265286500004 438.12832644994114Q1091.9265286500004 432.00587769984196 1093.8823108896154 424.04102539068515Q1095.809748459091 416.0761730815283 1099.8913809591572 405.47526644941206L1099.8913809591572 405.47526644941206L1117.6351444663892 359.16007544171714Q1118.8823099525202 355.67368101457737 1121.4333302650616 354.0580348166345Q1123.984350577603 352.41404394855226 1128.065983077669 352.41404394855226L1128.065983077669 352.41404394855226L1182.9412644674471 352.41404394855226Q1186.824484276538 352.41404394855226 1189.3755045890794 354.0580348166345Q1191.9265249016207 355.67368101457737 1193.1453457176126 359.16007544171714L1193.1453457176126 359.16007544171714L1210.9174538949837 405.47526644941206Q1214.99908639505 416.0761730815283 1216.9265239645256 424.04102539068515Q1218.8823062041406 432.00587769984196 1218.8823062041406 438.12832644994114L1218.8823062041406 438.12832644994114L1218.8823062041406 492.01154438484207Q1218.8823062041406 495.89476419393276 1217.1249366555012 497.623789072433Q1215.395911777001 499.35281395093324 1211.51269196791 499.35281395093324L1211.51269196791 499.35281395093324L1180.7020355264385 499.35281395093324Q1176.6204030263725 499.35281395093324 1174.692965456897 497.623789072433Q1172.7371832172819 495.89476419393276 1172.7371832172819 492.01154438484207L1172.7371832172819 492.01154438484207L1172.7371832172819 463.4401168843791L1136.6260734597522 463.4401168843791ZM1282.9412607190675 499.35281395093324L1282.9412607190675 499.35281395093324L1251.308608843555 499.35281395093324Q1247.4537337046036 499.35281395093324 1245.6963641559641 497.623789072433Q1243.967339277464 495.89476419393276 1243.967339277464 492.01154438484207L1243.967339277464 492.01154438484207L1243.967339277464 359.7553135146435Q1243.967339277464 355.87209370555274 1245.6963641559641 354.1430688270525Q1247.4537337046036 352.41404394855226 1251.308608843555 352.41404394855226L1251.308608843555 352.41404394855226L1282.9412607190675 352.41404394855226Q1286.8244805281583 352.41404394855226 1288.5535054066586 354.1430688270525Q1290.310874955298 355.87209370555274 1290.310874955298 359.7553135146435L1290.310874955298 359.7553135146435L1290.310874955298 404.0580329424447L1324.3811684627944 404.0580329424447L1324.3811684627944 359.7553135146435Q1324.3811684627944 355.87209370555274 1326.1101933412947 354.1430688270525Q1327.839218219795 352.41404394855226 1331.7224380288858 352.41404394855226L1331.7224380288858 352.41404394855226L1363.3550899043985 352.41404394855226Q1367.238309713489 352.41404394855226 1368.9673345919891 354.1430688270525Q1370.6963594704894 355.87209370555274 1370.6963594704894 359.7553135146435L1370.6963594704894 359.7553135146435L1370.6963594704894 492.01154438484207Q1370.6963594704894 495.89476419393276 1368.9673345919891 497.623789072433Q1367.238309713489 499.35281395093324 1363.3550899043985 499.35281395093324L1363.3550899043985 499.35281395093324L1331.7224380288858 499.35281395093324Q1327.839218219795 499.35281395093324 1326.1101933412947 497.623789072433Q1324.3811684627944 495.89476419393276 1324.3811684627944 492.01154438484207L1324.3811684627944 492.01154438484207L1324.3811684627944 446.6884168320243L1290.310874955298 446.6884168320243L1290.310874955298 492.01154438484207Q1290.310874955298 495.89476419393276 1288.5535054066586 497.623789072433Q1286.8244805281583 499.35281395093324 1282.9412607190675 499.35281395093324ZM1452.1305967808366 395.2711851992467L1452.1305967808366 395.2711851992467L1442.5500982737371 426.28025433169364L1474.5795755312006 426.28025433169364L1464.9990770241006 395.2711851992467Q1464.1770815900595 393.42878164018913 1463.2700521456009 392.606786206148Q1462.334678031002 391.8131354422463 1461.1158572150102 391.8131354422463L1461.1158572150102 391.8131354422463L1456.0138165899275 391.8131354422463Q1454.7949957739356 391.8131354422463 1453.8596216593369 392.606786206148Q1452.9525922148778 393.42878164018913 1452.1305967808366 395.2711851992467ZM1440.5092820237041 463.4401168843791L1440.5092820237041 492.01154438484207Q1440.5092820237041 495.89476419393276 1438.780257145204 497.623789072433Q1437.022887596564 499.35281395093324 1433.1680124576128 499.35281395093324L1433.1680124576128 499.35281395093324L1403.1510067800432 499.35281395093324Q1399.2677869709523 499.35281395093324 1397.538762092452 497.623789072433Q1395.8097372139518 495.89476419393276 1395.8097372139518 492.01154438484207L1395.8097372139518 492.01154438484207L1395.8097372139518 438.12832644994114Q1395.8097372139518 432.00587769984196 1397.7371747834277 424.04102539068515Q1399.6929570230427 416.0761730815283 1403.7745895231087 405.47526644941206L1403.7745895231087 405.47526644941206L1421.5183530303407 359.16007544171714Q1422.737173846333 355.67368101457737 1425.288194158874 354.0580348166345Q1427.8392144714157 352.41404394855226 1431.9208469714818 352.41404394855226L1431.9208469714818 352.41404394855226L1486.824473031399 352.41404394855226Q1490.7076928404895 352.41404394855226 1493.2587131530308 354.0580348166345Q1495.8097334655722 355.67368101457737 1497.028554281564 359.16007544171714L1497.028554281564 359.16007544171714L1514.8006624589357 405.47526644941206Q1518.8822949590017 416.0761730815283 1520.8097325284775 424.04102539068515Q1522.737170097953 432.00587769984196 1522.737170097953 438.12832644994114L1522.737170097953 438.12832644994114L1522.737170097953 492.01154438484207Q1522.737170097953 495.89476419393276 1521.0081452194531 497.623789072433Q1519.2791203409529 499.35281395093324 1515.395900531862 499.35281395093324L1515.395900531862 499.35281395093324L1484.5852440903905 499.35281395093324Q1480.5036115903245 499.35281395093324 1478.5761740208486 497.623789072433Q1476.6203917812336 495.89476419393276 1476.6203917812336 492.01154438484207L1476.6203917812336 492.01154438484207L1476.6203917812336 463.4401168843791L1440.5092820237041 463.4401168843791ZM1632.7428349087631 499.35281395093324L1632.7428349087631 499.35281395093324L1579.6816124079037 499.35281395093324Q1575.7983925988128 499.35281395093324 1573.2473722862715 497.9355804439658Q1570.69635197373 496.49000226685905 1569.2791184667626 492.60678245776836L1569.2791184667626 492.60678245776836L1549.2677813483829 442.6067843319582Q1547.4537224594646 438.12832644994114 1546.2065569733336 434.75531070335876Q1544.9877361573413 431.3822949567763 1544.1657407233001 428.3210705817267Q1543.3720899593986 425.2598462066771 1543.0602985878659 421.91517513023405Q1542.7485072163327 418.54215938365155 1542.7485072163327 413.63853144954436L1542.7485072163327 413.63853144954436L1542.7485072163327 359.7553135146435Q1542.7485072163327 355.87209370555274 1544.4775320948334 354.1430688270525Q1546.2065569733336 352.41404394855226 1550.089776782424 352.41404394855226L1550.089776782424 352.41404394855226L1582.5444240919778 352.41404394855226Q1586.4276439010682 352.41404394855226 1588.4684601511017 354.1430688270525Q1590.5092764011347 355.87209370555274 1590.5092764011347 359.7553135146435L1590.5092764011347 359.7553135146435L1590.5092764011347 416.0761730815283Q1590.5092764011347 418.11698933156134 1590.9061017830854 420.1578055815944Q1591.3312718351758 422.1986218316275 1592.1249225990773 424.46619544277536L1592.1249225990773 424.46619544277536L1601.7337657763164 453.03762294323826Q1602.3290038492428 455.0784391932714 1603.150999283284 455.7870559467551Q1603.972994717325 456.4956727002388 1605.6169855854073 456.4956727002388L1605.6169855854073 456.4956727002388L1607.8562145264154 456.4956727002388Q1609.4718607243585 456.4956727002388 1610.2938561583996 455.7870559467551Q1611.1158515924408 455.0784391932714 1611.7394343355063 453.03762294323826L1611.7394343355063 453.03762294323826L1621.3199328426058 424.2394380816606Q1622.141928276647 422.00020914065203 1622.5387536585981 419.959392890619Q1622.963923710688 417.9185766405859 1622.963923710688 415.87776039055285L1622.963923710688 415.87776039055285L1622.963923710688 359.7553135146435Q1622.963923710688 355.87209370555274 1624.6929485891883 354.1430688270525Q1626.421973467689 352.41404394855226 1630.3051932767794 352.41404394855226L1630.3051932767794 352.41404394855226L1662.3346705342428 352.41404394855226Q1666.2178903433337 352.41404394855226 1667.946915221834 354.1430688270525Q1669.6759401003342 355.87209370555274 1669.6759401003342 359.7553135146435L1669.6759401003342 359.7553135146435L1669.6759401003342 413.63853144954436Q1669.6759401003342 418.54215938365155 1669.3924933989406 421.91517513023405Q1669.0807020274078 425.2598462066771 1668.2587065933667 428.3210705817267Q1667.4367111593256 431.3822949567763 1666.2178903433337 434.75531070335876Q1664.9990695273414 438.12832644994114 1663.156665968284 442.6067843319582L1663.156665968284 442.6067843319582L1643.1453288499042 492.60678245776836Q1641.7280953429367 496.49000226685905 1639.1770750303954 497.9355804439658Q1636.626054717854 499.35281395093324 1632.7428349087631 499.35281395093324Z" transform="matrix(0.5240538052456046,0,0,0.5240538052456046,0,76.01205674145216)"/></g></svg>