<svg xmlns="http://www.w3.org/2000/svg" xmlns:xlink="http://www.w3.org/1999/xlink" id="Layer_1" width="256" height="256" x="0" y="0" version="1.1" viewBox="0 0 640 640" xml:space="preserve" style="enable-background:new 0 0 640 640"><style type="text/css">.st0{fill:#fff}.st1,.st2{fill:#fff;stroke:#000;stroke-width:7;stroke-miterlimit:10}.st2{fill:none}</style><polyline points="171.7 621.7 20 18.4 620 186.9" class="st0"/><g><line x1="245.8" x2="283.7" y1="362.4" y2="513.3" class="st1"/><line x1="395.5" x2="245.8" y1="404.8" y2="362.4" class="st1"/><line x1="283.7" x2="395.5" y1="513.3" y2="404.8" class="st1"/><path d="M134,470.9" class="st1"/><line x1="283.7" x2="134" y1="513.3" y2="470.9" class="st1"/><path d="M134,470.9" class="st1"/><polyline points="134 470.9 171.9 621.9 283.7 513.3" class="st2"/><line x1="134" x2="245.8" y1="470.9" y2="362.4" class="st1"/><line x1="245.8" x2="357.7" y1="362.4" y2="253.8" class="st1"/><line x1="357.7" x2="469.5" y1="253.8" y2="145.3" class="st1"/><line x1="319.8" x2="357.7" y1="102.9" y2="253.8" class="st1"/><line x1="357.7" x2="207.9" y1="253.8" y2="211.5" class="st1"/><line x1="207.9" x2="245.8" y1="211.5" y2="362.4" class="st1"/><line x1="245.8" x2="96.1" y1="362.4" y2="320" class="st1"/><line x1="96.1" x2="134" y1="320" y2="470.9" class="st1"/><line x1="58.2" x2="96.1" y1="169.1" y2="320" class="st1"/><line x1="207.9" x2="58.2" y1="211.5" y2="169.1" class="st1"/><line x1="96.1" x2="207.9" y1="320" y2="211.5" class="st1"/><line x1="207.9" x2="319.8" y1="211.4" y2="102.9" class="st1"/><line x1="319.8" x2="170" y1="102.9" y2="60.5" class="st1"/><line x1="170" x2="207.9" y1="60.5" y2="211.4" class="st1"/><polyline points="58.2 169.1 20.3 18.1 170 60.5" class="st2"/><line x1="58.2" x2="170" y1="169.1" y2="60.5" class="st1"/><polyline points="507.4 296.2 619.2 187.7 469.5 145.3" class="st2"/><line x1="469.5" x2="507.4" y1="145.3" y2="296.2" class="st1"/><line x1="507.4" x2="357.7" y1="296.2" y2="253.8" class="st1"/><line x1="357.7" x2="395.5" y1="253.8" y2="404.8" class="st1"/><line x1="395.5" x2="507.4" y1="404.8" y2="296.2" class="st1"/><line x1="469.5" x2="319.8" y1="145.3" y2="102.9" class="st1"/></g></svg>